<svg xmlns="http://www.w3.org/2000/svg" viewBox="0 0 64 64" role="img"><title>AI Pilot</title><rect x="14" y="20" width="36" height="34" rx="11" fill="#D4B483"/><path d="M14 24C14 14 22 9 32 9C42 9 50 14 50 21L58 23.5Q59 27 55 27.5L14 27.5Z" fill="#D4B483"/><rect x="14" y="26.5" width="36" height="2.6" fill="#0F1012"/><circle cx="32" cy="16" r="2.4" fill="#0F1012"/><circle cx="25" cy="38" r="4.6" fill="#0F1012"/><circle cx="39" cy="38" r="4.6" fill="#0F1012"/><circle cx="25" cy="38" r="2" fill="#D4B483"/><circle cx="39" cy="38" r="2" fill="#D4B483"/><ellipse cx="32" cy="47" rx="2.2" ry="2.6" fill="#0F1012"/><path d="M55 33q3 5 0 10" fill="none" stroke="#D4B483" stroke-width="2.2" stroke-linecap="round"/><path d="M59 30q5 8 0 16" fill="none" stroke="#D4B483" stroke-width="2.2" stroke-linecap="round"/></svg>
